<svg xmlns="http://www.w3.org/2000/svg" viewBox="0 0 192 192" width="192" height="192">
  <defs>
    <linearGradient id="bgGrad" x1="0%" y1="0%" x2="100%" y2="100%">
      <stop offset="0%" style="stop-color:#1e3a8a"/>
      <stop offset="100%" style="stop-color:#3b82f6"/>
    </linearGradient>
  </defs>
  
  <!-- Background circle -->
  <circle cx="96" cy="96" r="88" fill="url(#bgGrad)" stroke="#ffffff" stroke-width="4"/>
  
  <!-- Crown -->
  <polygon points="66,50 76,40 86,50 96,35 106,50 116,40 126,50 126,65 66,65" 
           fill="#fbbf24" stroke="#f59e0b" stroke-width="2"/>
  <circle cx="96" cy="45" r="3" fill="#ef4444"/>
  <circle cx="81" cy="52" r="2" fill="#ef4444"/>
  <circle cx="111" cy="52" r="2" fill="#ef4444"/>
  
  <!-- Person (business suit) -->
  <circle cx="96" cy="85" r="15" fill="#fbbf24" stroke="#f59e0b" stroke-width="2"/>
  <rect x="81" y="100" width="30" height="35" rx="5" fill="#1f2937" stroke="#374151" stroke-width="2"/>
  <rect x="86" y="105" width="20" height="25" rx="2" fill="#ffffff"/>
  <line x1="96" y1="105" x2="96" y2="130" stroke="#1e3a8a" stroke-width="2"/>
  
  <!-- Chart/Graph -->
  <rect x="130" y="120" width="35" height="25" rx="3" fill="#ffffff" stroke="#1e3a8a" stroke-width="2"/>
  <polyline points="135,140 140,135 145,138 150,130 155,133 160,128" 
            fill="none" stroke="#10b981" stroke-width="2"/>
  <rect x="135" y="137" width="2" height="5" fill="#1e3a8a"/>
  <rect x="140" y="132" width="2" height="10" fill="#1e3a8a"/>
  <rect x="145" y="135" width="2" height="7" fill="#1e3a8a"/>
  <rect x="150" y="127" width="2" height="15" fill="#1e3a8a"/>
  <rect x="155" y="130" width="2" height="12" fill="#1e3a8a"/>
  
  <!-- Document/Report icon -->
  <rect x="25" y="130" width="20" height="25" rx="2" fill="#ffffff" stroke="#1e3a8a" stroke-width="2"/>
  <line x1="30" y1="137" x2="40" y2="137" stroke="#1e3a8a" stroke-width="1"/>
  <line x1="30" y1="142" x2="40" y2="142" stroke="#1e3a8a" stroke-width="1"/>
  <line x1="30" y1="147" x2="35" y2="147" stroke="#1e3a8a" stroke-width="1"/>
</svg>