<svg xmlns="http://www.w3.org/2000/svg" viewBox="0 0 192 192" width="512" height="512">
  <defs>
    <linearGradient id="techBgGrad" x1="0%" y1="0%" x2="100%" y2="100%">
      <stop offset="0%" style="stop-color:#059669"/>
      <stop offset="100%" style="stop-color:#10b981"/>
    </linearGradient>
  </defs>
  
  <!-- Background circle -->
  <circle cx="96" cy="96" r="88" fill="url(#techBgGrad)" stroke="#ffffff" stroke-width="4"/>
  
  <!-- Hard hat -->
  <ellipse cx="96" cy="65" rx="25" ry="20" fill="#fbbf24" stroke="#f59e0b" stroke-width="2"/>
  <rect x="86" y="45" width="20" height="10" rx="5" fill="#ef4444"/>
  <circle cx="96" cy="50" r="2" fill="#ffffff"/>
  
  <!-- Person -->
  <circle cx="96" cy="85" r="12" fill="#fbbf24" stroke="#f59e0b" stroke-width="2"/>
  <rect x="84" y="97" width="24" height="30" rx="3" fill="#1f2937" stroke="#374151" stroke-width="2"/>
  <rect x="88" y="102" width="16" height="20" rx="2" fill="#059669"/>
  
  <!-- Tools -->
  <!-- Wrench -->
  <g transform="translate(135,120) rotate(45)">
    <rect x="0" y="0" width="15" height="4" rx="2" fill="#9ca3af"/>
    <rect x="13" y="-2" width="6" height="8" rx="3" fill="#9ca3af"/>
  </g>
  
  <!-- Screwdriver -->
  <g transform="translate(155,135) rotate(-30)">
    <rect x="0" y="0" width="12" height="2" rx="1" fill="#fbbf24"/>
    <rect x="10" y="-1" width="3" height="4" rx="1" fill="#1f2937"/>
  </g>
  
  <!-- Gear -->
  <g transform="translate(30,125)">
    <circle cx="12" cy="12" r="8" fill="#9ca3af" stroke="#6b7280" stroke-width="1"/>
    <circle cx="12" cy="12" r="4" fill="#374151"/>
    <rect x="8" y="0" width="8" height="4" rx="2" fill="#9ca3af"/>
    <rect x="8" y="20" width="8" height="4" rx="2" fill="#9ca3af"/>
    <rect x="0" y="8" width="4" height="8" rx="2" fill="#9ca3af"/>
    <rect x="20" y="8" width="4" height="8" rx="2" fill="#9ca3af"/>
  </g>
  
  <!-- Toolbox -->
  <rect x="65" y="140" width="25" height="15" rx="2" fill="#ef4444" stroke="#dc2626" stroke-width="2"/>
  <rect x="70" y="135" width="15" height="8" rx="1" fill="#9ca3af"/>
  <rect x="75" y="147" width="5" height="2" fill="#ffffff"/>
</svg>